<svg xmlns="http://www.w3.org/2000/svg" width="31" height="12" fill="none"><path fill="#000" d="M3.998 11.256c2.688 0 4.285-2.102 4.285-5.661 0-1.34-.257-2.469-.747-3.34C6.826.9 5.602.167 4.056.167 1.757.167.132 1.713.132 3.881c0 2.036 1.465 3.515 3.479 3.515 1.238 0 2.241-.578 2.74-1.582h.124c0 2.417-.916 3.86-2.461 3.86-.909 0-1.612-.498-1.853-1.296H.277c.315 1.736 1.787 2.878 3.721 2.878Zm.066-5.361c-1.216 0-2.08-.864-2.08-2.073 0-1.179.908-2.08 2.087-2.08 1.18 0 2.088.916 2.088 2.11 0 1.179-.887 2.043-2.095 2.043Zm7.203 3.984c.696 0 1.172-.498 1.172-1.157 0-.666-.476-1.157-1.172-1.157-.688 0-1.172.49-1.172 1.157 0 .66.484 1.157 1.172 1.157Zm0-5.493c.696 0 1.172-.49 1.172-1.15 0-.666-.476-1.157-1.172-1.157-.688 0-1.172.49-1.172 1.157 0 .66.484 1.15 1.172 1.15Zm3.197-.864v.03h1.773v-.03c0-1.077.747-1.802 1.853-1.802 1.04 0 1.801.674 1.801 1.604 0 .747-.358 1.297-1.801 2.761L14.567 9.69V11h7.339V9.396H17.16v-.125l2.211-2.219c1.795-1.772 2.373-2.71 2.373-3.845 0-1.765-1.508-3.04-3.596-3.04-2.168 0-3.684 1.377-3.684 3.355ZM24.144 11h1.977l4.519-8.958V.432h-7.354V2.02h5.45v.117L24.142 11Z"/></svg>