<svg xmlns="http://www.w3.org/2000/svg" width="66" height="16" fill="none"><rect width="21" height="10.333" x="43.5" y="2.833" stroke="#000" opacity=".35" rx="2.167"/><rect width="18" height="7.333" x="45" y="4.333" fill="#000" rx="1.333"/><path fill="#000" fill-rule="evenodd" d="M30.333 4.574a8.77 8.77 0 0 1 5.977 2.34.314.314 0 0 0 .435-.003l1.16-1.148a.313.313 0 0 0-.002-.449c-4.232-3.974-10.908-3.974-15.14 0a.314.314 0 0 0-.003.449l1.16 1.148c.12.118.314.119.436.003a8.771 8.771 0 0 1 5.977-2.34Zm-.002 3.725c1.224 0 2.404.457 3.311 1.282a.311.311 0 0 0 .436-.006l1.16-1.177a.326.326 0 0 0-.004-.463 7.176 7.176 0 0 0-9.803 0 .325.325 0 0 0-.004.463l1.16 1.177c.12.12.313.123.436.006a4.921 4.921 0 0 1 3.308-1.282Zm2.335 2.724a.307.307 0 0 1-.095.228l-2.015 1.99a.318.318 0 0 1-.447 0l-2.015-1.99a.307.307 0 0 1 .01-.452 3.508 3.508 0 0 1 4.458 0 .307.307 0 0 1 .104.224ZM17.666 3.667a1 1 0 0 0-1-1h-1a1 1 0 0 0-1 1v8.666a1 1 0 0 0 1 1h1a1 1 0 0 0 1-1V3.667ZM10.999 5h1a1 1 0 0 1 1 1v6.333a1 1 0 0 1-1 1h-1a1 1 0 0 1-1-1V6a1 1 0 0 1 1-1ZM7.333 7.333h-1a1 1 0 0 0-1 1v4a1 1 0 0 0 1 1h1a1 1 0 0 0 1-1v-4a1 1 0 0 0-1-1Zm-3.667 3a1 1 0 0 0-1-1h-1a1 1 0 0 0-1 1v2a1 1 0 0 0 1 1h1a1 1 0 0 0 1-1v-2Z" clip-rule="evenodd"/></svg>